{
  "accessors": [
    {
      "bufferView": 2,
      "componentType": 5126,
      "count": 3642,
      "max": [
        0.17649999260902405,
        0.17649999260902405,
        0.02504311315715313
      ],
      "min": [
        -0.17649999260902405,
        -0.17649999260902405,
        -0.05595690757036209
      ],
      "type": "VEC3"
    },
    {
      "bufferView": 2,
      "byteOffset": 43704,
      "componentType": 5126,
      "count": 3642,
      "max": [
        1.0,
        1.0,
        1.0
      ],
      "min": [
        -1.0,
        -1.0,
        -1.0
      ],
      "type": "VEC3"
    },
    {
      "bufferView": 1,
      "componentType": 5126,
      "count": 3642,
      "max": [
        0.995302677154541,
        0.9914165735244751
      ],
      "min": [
        0.05451856553554535,
        0.004697330296039581
      ],
      "type": "VEC2"
    },
    {
      "bufferView": 1,
      "byteOffset": 29136,
      "componentType": 5126,
      "count": 3642,
      "max": [
        0.9617516994476318,
        0.8735197186470032
      ],
      "min": [
        0.0,
        0.0
      ],
      "type": "VEC2"
    },
    {
      "bufferView": 0,
      "componentType": 5125,
      "count": 14034,
      "type": "SCALAR"
    }
  ],
  "asset": {
    "extras": {
      "author": "Moryak (https://sketchfab.com/_moryak_)",
      "license": "CC-BY-4.0 (http://creativecommons.org/licenses/by/4.0/)",
      "source": "https://sketchfab.com/3d-models/robot-vacuum-cleaner-low-poly-7230d8d80e8b4a82b4a34a5e7926d0d3",
      "title": "Robot vacuum cleaner low poly"
    },
    "generator": "Sketchfab-15.49.0",
    "version": "2.0"
  },
  "bufferViews": [
    {
      "buffer": 0,
      "byteLength": 56136,
      "name": "floatBufferViews",
      "target": 34963
    },
    {
      "buffer": 0,
      "byteLength": 58272,
      "byteOffset": 56136,
      "byteStride": 8,
      "name": "floatBufferViews",
      "target": 34962
    },
    {
      "buffer": 0,
      "byteLength": 87408,
      "byteOffset": 114408,
      "byteStride": 12,
      "name": "floatBufferViews",
      "target": 34962
    }
  ],
  "buffers": [
    {
      "byteLength": 201816,
      "uri": "scene.bin"
    }
  ],
  "images": [
    {
      "uri": "textures/aeneoclsbdg000031_baseColor.png"
    },
    {
      "uri": "textures/aeneoclsbdg000031_metallicRoughness.png"
    }
  ],
  "materials": [
    {
      "doubleSided": true,
      "name": "aeneoclsbdg000031",
      "occlusionTexture": {
        "index": 1
      },
      "pbrMetallicRoughness": {
        "baseColorTexture": {
          "index": 0
        },
        "metallicRoughnessTexture": {
          "index": 1
        },
        "roughnessFactor": 0.0
      }
    }
  ],
  "meshes": [
    {
      "name": "aeneoclsbdg000031_aeneoclsbdg000031_0",
      "primitives": [
        {
          "attributes": {
            "NORMAL": 1,
            "POSITION": 0,
            "TEXCOORD_0": 2,
            "TEXCOORD_1": 3
          },
          "indices": 4,
          "material": 0,
          "mode": 4
        }
      ]
    }
  ],
  "nodes": [
    {
      "children": [
        1
      ],
      "matrix": [
        1.0,
        0.0,
        0.0,
        0.0,
        0.0,
        2.220446049250313e-16,
        -1.0,
        0.0,
        0.0,
        1.0,
        2.220446049250313e-16,
        0.0,
        0.0,
        0.0,
        0.0,
        1.0
      ],
      "name": "Sketchfab_model"
    },
    {
      "children": [
        2
      ],
      "matrix": [
        0.009999999776482582,
        0.0,
        0.0,
        0.0,
        0.0,
        0.0,
        0.009999999776482582,
        0.0,
        0.0,
        -0.009999999776482582,
        0.0,
        0.0,
        0.0,
        0.0,
        0.0,
        1.0
      ],
      "name": "a83ac18be48c4d47a567899ac2de570d.fbx"
    },
    {
      "children": [
        3
      ],
      "name": "RootNode"
    },
    {
      "children": [
        4
      ],
      "matrix": [
        100.0,
        0.0,
        0.0,
        0.0,
        0.0,
        -1.629206793918314e-05,
        -99.99999999999868,
        0.0,
        0.0,
        99.99999999999868,
        -1.629206793918314e-05,
        0.0,
        0.0,
        0.0,
        0.0,
        1.0
      ],
      "name": "aeneoclsbdg000031"
    },
    {
      "mesh": 0,
      "name": "aeneoclsbdg000031_aeneoclsbdg000031_0"
    }
  ],
  "samplers": [
    {
      "magFilter": 9729,
      "minFilter": 9987,
      "wrapS": 10497,
      "wrapT": 10497
    }
  ],
  "scene": 0,
  "scenes": [
    {
      "name": "Sketchfab_Scene",
      "nodes": [
        0
      ]
    }
  ],
  "textures": [
    {
      "sampler": 0,
      "source": 0
    },
    {
      "sampler": 0,
      "source": 1
    }
  ]
}
