{
  "accessors": [
    {
      "bufferView": 2,
      "componentType": 5126,
      "count": 366,
      "max": [
        1.0,
        1.0,
        1.0
      ],
      "min": [
        -1.0,
        -1.0,
        -44.4228515625
      ],
      "type": "VEC3"
    },
    {
      "bufferView": 2,
      "byteOffset": 4392,
      "componentType": 5126,
      "count": 366,
      "max": [
        1.0,
        1.0,
        1.0
      ],
      "min": [
        -1.0,
        -1.0,
        -1.0
      ],
      "type": "VEC3"
    },
    {
      "bufferView": 1,
      "componentType": 5126,
      "count": 366,
      "max": [
        0.75,
        0.875
      ],
      "min": [
        0.25,
        0.625
      ],
      "type": "VEC2"
    },
    {
      "bufferView": 0,
      "componentType": 5125,
      "count": 804,
      "type": "SCALAR"
    },
    {
      "bufferView": 2,
      "byteOffset": 8784,
      "componentType": 5126,
      "count": 238,
      "max": [
        1.0,
        1.0,
        25.05280876159668
      ],
      "min": [
        -1.0,
        -1.0,
        -25.865264892578125
      ],
      "type": "VEC3"
    },
    {
      "bufferView": 2,
      "byteOffset": 11640,
      "componentType": 5126,
      "count": 238,
      "max": [
        1.0,
        1.0,
        1.0
      ],
      "min": [
        -1.0,
        -1.0,
        -1.0
      ],
      "type": "VEC3"
    },
    {
      "bufferView": 1,
      "byteOffset": 2928,
      "componentType": 5126,
      "count": 238,
      "max": [
        0.875,
        1.0
      ],
      "min": [
        0.125,
        0.0
      ],
      "type": "VEC2"
    },
    {
      "bufferView": 0,
      "byteOffset": 3216,
      "componentType": 5125,
      "count": 564,
      "type": "SCALAR"
    },
    {
      "bufferView": 2,
      "byteOffset": 14496,
      "componentType": 5126,
      "count": 238,
      "max": [
        1.0,
        1.0,
        25.05280876159668
      ],
      "min": [
        -1.0,
        -1.0,
        -25.865264892578125
      ],
      "type": "VEC3"
    },
    {
      "bufferView": 2,
      "byteOffset": 17352,
      "componentType": 5126,
      "count": 238,
      "max": [
        1.0,
        1.0,
        1.0
      ],
      "min": [
        -1.0,
        -1.0,
        -1.0
      ],
      "type": "VEC3"
    },
    {
      "bufferView": 1,
      "byteOffset": 4832,
      "componentType": 5126,
      "count": 238,
      "max": [
        0.875,
        1.0
      ],
      "min": [
        0.125,
        0.0
      ],
      "type": "VEC2"
    },
    {
      "bufferView": 0,
      "byteOffset": 5472,
      "componentType": 5125,
      "count": 564,
      "type": "SCALAR"
    },
    {
      "bufferView": 2,
      "byteOffset": 20208,
      "componentType": 5126,
      "count": 238,
      "max": [
        1.0,
        1.0,
        25.05280876159668
      ],
      "min": [
        -1.0,
        -1.0,
        -25.865264892578125
      ],
      "type": "VEC3"
    },
    {
      "bufferView": 2,
      "byteOffset": 23064,
      "componentType": 5126,
      "count": 238,
      "max": [
        1.0,
        1.0,
        1.0
      ],
      "min": [
        -1.0,
        -1.0,
        -1.0
      ],
      "type": "VEC3"
    },
    {
      "bufferView": 1,
      "byteOffset": 6736,
      "componentType": 5126,
      "count": 238,
      "max": [
        0.875,
        1.0
      ],
      "min": [
        0.125,
        0.0
      ],
      "type": "VEC2"
    },
    {
      "bufferView": 0,
      "byteOffset": 7728,
      "componentType": 5125,
      "count": 564,
      "type": "SCALAR"
    },
    {
      "bufferView": 2,
      "byteOffset": 25920,
      "componentType": 5126,
      "count": 238,
      "max": [
        1.0,
        1.0,
        25.05280876159668
      ],
      "min": [
        -1.0,
        -1.0,
        -25.865264892578125
      ],
      "type": "VEC3"
    },
    {
      "bufferView": 2,
      "byteOffset": 28776,
      "componentType": 5126,
      "count": 238,
      "max": [
        1.0,
        1.0,
        1.0
      ],
      "min": [
        -1.0,
        -1.0,
        -1.0
      ],
      "type": "VEC3"
    },
    {
      "bufferView": 1,
      "byteOffset": 8640,
      "componentType": 5126,
      "count": 238,
      "max": [
        0.875,
        1.0
      ],
      "min": [
        0.125,
        0.0
      ],
      "type": "VEC2"
    },
    {
      "bufferView": 0,
      "byteOffset": 9984,
      "componentType": 5125,
      "count": 564,
      "type": "SCALAR"
    },
    {
      "bufferView": 2,
      "byteOffset": 31632,
      "componentType": 5126,
      "count": 238,
      "max": [
        1.0,
        1.0,
        25.05280876159668
      ],
      "min": [
        -1.0,
        -1.0,
        -25.865264892578125
      ],
      "type": "VEC3"
    },
    {
      "bufferView": 2,
      "byteOffset": 34488,
      "componentType": 5126,
      "count": 238,
      "max": [
        1.0,
        1.0,
        1.0
      ],
      "min": [
        -1.0,
        -1.0,
        -1.0
      ],
      "type": "VEC3"
    },
    {
      "bufferView": 1,
      "byteOffset": 10544,
      "componentType": 5126,
      "count": 238,
      "max": [
        0.875,
        1.0
      ],
      "min": [
        0.125,
        0.0
      ],
      "type": "VEC2"
    },
    {
      "bufferView": 0,
      "byteOffset": 12240,
      "componentType": 5125,
      "count": 564,
      "type": "SCALAR"
    },
    {
      "bufferView": 2,
      "byteOffset": 37344,
      "componentType": 5126,
      "count": 238,
      "max": [
        1.0,
        1.0,
        25.05280876159668
      ],
      "min": [
        -1.0,
        -1.0,
        -25.865264892578125
      ],
      "type": "VEC3"
    },
    {
      "bufferView": 2,
      "byteOffset": 40200,
      "componentType": 5126,
      "count": 238,
      "max": [
        1.0,
        1.0,
        1.0
      ],
      "min": [
        -1.0,
        -1.0,
        -1.0
      ],
      "type": "VEC3"
    },
    {
      "bufferView": 1,
      "byteOffset": 12448,
      "componentType": 5126,
      "count": 238,
      "max": [
        0.875,
        1.0
      ],
      "min": [
        0.125,
        0.0
      ],
      "type": "VEC2"
    },
    {
      "bufferView": 0,
      "byteOffset": 14496,
      "componentType": 5125,
      "count": 564,
      "type": "SCALAR"
    }
  ],
  "asset": {
    "extras": {
      "author": "aish01 (https://sketchfab.com/aish01)",
      "license": "CC-BY-4.0 (http://creativecommons.org/licenses/by/4.0/)",
      "source": "https://sketchfab.com/3d-models/kursi-dan-meja-makan-2e48c4d293404b7f9d4ad61cd0e7454e",
      "title": "Kursi dan Meja Makan"
    },
    "generator": "Sketchfab-12.68.0",
    "version": "2.0"
  },
  "bufferViews": [
    {
      "buffer": 0,
      "byteLength": 16752,
      "name": "floatBufferViews",
      "target": 34963
    },
    {
      "buffer": 0,
      "byteLength": 14352,
      "byteOffset": 16752,
      "byteStride": 8,
      "name": "floatBufferViews",
      "target": 34962
    },
    {
      "buffer": 0,
      "byteLength": 43056,
      "byteOffset": 31104,
      "byteStride": 12,
      "name": "floatBufferViews",
      "target": 34962
    }
  ],
  "buffers": [
    {
      "byteLength": 74160,
      "uri": "scene.bin"
    }
  ],
  "materials": [
    {
      "doubleSided": true,
      "name": "Chair",
      "pbrMetallicRoughness": {
        "metallicFactor": 0.0,
        "roughnessFactor": 0.7763932022500211
      }
    }
  ],
  "meshes": [
    {
      "name": "Cube_Chair_0",
      "primitives": [
        {
          "attributes": {
            "NORMAL": 1,
            "POSITION": 0,
            "TEXCOORD_0": 2
          },
          "indices": 3,
          "material": 0,
          "mode": 4
        }
      ]
    },
    {
      "name": "Cube.001_Chair_0",
      "primitives": [
        {
          "attributes": {
            "NORMAL": 5,
            "POSITION": 4,
            "TEXCOORD_0": 6
          },
          "indices": 7,
          "material": 0,
          "mode": 4
        }
      ]
    },
    {
      "name": "Cube.002_Chair_0",
      "primitives": [
        {
          "attributes": {
            "NORMAL": 9,
            "POSITION": 8,
            "TEXCOORD_0": 10
          },
          "indices": 11,
          "material": 0,
          "mode": 4
        }
      ]
    },
    {
      "name": "Cube.003_Chair_0",
      "primitives": [
        {
          "attributes": {
            "NORMAL": 13,
            "POSITION": 12,
            "TEXCOORD_0": 14
          },
          "indices": 15,
          "material": 0,
          "mode": 4
        }
      ]
    },
    {
      "name": "Cube.004_Chair_0",
      "primitives": [
        {
          "attributes": {
            "NORMAL": 17,
            "POSITION": 16,
            "TEXCOORD_0": 18
          },
          "indices": 19,
          "material": 0,
          "mode": 4
        }
      ]
    },
    {
      "name": "Cube.005_Chair_0",
      "primitives": [
        {
          "attributes": {
            "NORMAL": 21,
            "POSITION": 20,
            "TEXCOORD_0": 22
          },
          "indices": 23,
          "material": 0,
          "mode": 4
        }
      ]
    },
    {
      "name": "Cube.006_Chair_0",
      "primitives": [
        {
          "attributes": {
            "NORMAL": 25,
            "POSITION": 24,
            "TEXCOORD_0": 26
          },
          "indices": 27,
          "material": 0,
          "mode": 4
        }
      ]
    }
  ],
  "nodes": [
    {
      "children": [
        1
      ],
      "matrix": [
        1.0,
        0.0,
        0.0,
        0.0,
        0.0,
        2.220446049250313e-16,
        -1.0,
        0.0,
        0.0,
        1.0,
        2.220446049250313e-16,
        0.0,
        0.0,
        0.0,
        0.0,
        1.0
      ],
      "name": "Sketchfab_model"
    },
    {
      "children": [
        2
      ],
      "matrix": [
        1.0,
        0.0,
        0.0,
        0.0,
        0.0,
        0.0,
        1.0,
        0.0,
        0.0,
        -1.0,
        0.0,
        0.0,
        0.0,
        0.0,
        0.0,
        1.0
      ],
      "name": "c4b8f9b67d774c08a1361b1490dff31f.fbx"
    },
    {
      "children": [
        3,
        6,
        8,
        10,
        12,
        14,
        16,
        18,
        20,
        22,
        25,
        28,
        31
      ],
      "name": "RootNode"
    },
    {
      "children": [
        4
      ],
      "matrix": [
        -29.08647719990347,
        -5.518906457566863,
        -95.51711910171437,
        0.0,
        56.63930913109449,
        79.46723428563203,
        -21.83912397841966,
        0.0,
        77.11008775993375,
        -60.45246356562044,
        -19.98834696773717,
        0.0,
        658.3762817382813,
        590.38623046875,
        -100.54539489746094,
        1.0
      ],
      "name": "Light"
    },
    {
      "children": [
        5
      ],
      "matrix": [
        1.0,
        0.0,
        0.0,
        0.0,
        0.0,
        2.220446049250313e-16,
        1.0,
        0.0,
        0.0,
        -1.0,
        2.220446049250313e-16,
        0.0,
        0.0,
        0.0,
        0.0,
        1.0
      ],
      "name": "Object_4"
    },
    {
      "name": "Object_5"
    },
    {
      "children": [
        7
      ],
      "matrix": [
        -53.829777482187055,
        -25.157407379589234,
        -80.4329813434319,
        0.0,
        -13.18482142824727,
        96.77926110507877,
        -21.446168786481774,
        0.0,
        83.23771967575169,
        -0.9394796899639932,
        -55.413003230037056,
        0.0,
        752.565185546875,
        471.5838928222656,
        1111.120361328125,
        1.0
      ],
      "name": "Camera"
    },
    {
      "name": "Object_7"
    },
    {
      "children": [
        9
      ],
      "matrix": [
        300.0,
        0.0,
        0.0,
        0.0,
        0.0,
        -2.9325722290529654e-05,
        -179.9999999999976,
        0.0,
        0.0,
        4.501825332641542,
        -7.334404416973272e-07,
        0.0,
        0.0,
        201.75485229492188,
        0.0,
        1.0
      ],
      "name": "Cube"
    },
    {
      "mesh": 0,
      "name": "Cube_Chair_0"
    },
    {
      "children": [
        11
      ],
      "matrix": [
        60.00000381469657,
        -9.059748521873486e-06,
        1.588186877076009e-21,
        -0.0,
        -1.476020387965451e-12,
        -9.775241424970986e-06,
        -60.00000381469646,
        -0.0,
        -7.23205935556522e-07,
        -4.789576530456424,
        7.8032106446815e-07,
        -0.0,
        100.0,
        121.7548828125,
        -200.0,
        1.0
      ],
      "name": "Cube.001"
    },
    {
      "mesh": 1,
      "name": "Cube.001_Chair_0"
    },
    {
      "children": [
        13
      ],
      "matrix": [
        60.00000381469657,
        -9.059748521873486e-06,
        1.588186877076009e-21,
        -0.0,
        -1.476020387965451e-12,
        -9.775241424970986e-06,
        -60.00000381469646,
        -0.0,
        -7.23205935556522e-07,
        -4.789576530456424,
        7.8032106446815e-07,
        -0.0,
        -100.0,
        121.7548828125,
        -200.0,
        1.0
      ],
      "name": "Cube.002"
    },
    {
      "mesh": 2,
      "name": "Cube.002_Chair_0"
    },
    {
      "children": [
        15
      ],
      "matrix": [
        -1.1682432045089013e-05,
        -3.3306692856337064e-15,
        -60.00000381469614,
        -0.0,
        -60.00000381469608,
        2.6226835705314062e-06,
        1.168243206174236e-05,
        -0.0,
        -2.0935904742808023e-07,
        -4.789576530456539,
        4.253998513853701e-14,
        -0.0,
        -300.0,
        121.7548599243164,
        2.384185791015625e-05,
        1.0
      ],
      "name": "Cube.003"
    },
    {
      "mesh": 3,
      "name": "Cube.003_Chair_0"
    },
    {
      "children": [
        17
      ],
      "matrix": [
        -60.00000381469408,
        -1.588186877076009e-21,
        1.955048514144209e-05,
        -0.0,
        1.955048514144183e-05,
        9.775241371680278e-06,
        60.00000381469327,
        -0.0,
        2.5426090613342896e-13,
        -4.789576530456479,
        7.803210612776511e-07,
        -0.0,
        100.0,
        121.7548828125,
        200.0,
        1.0
      ],
      "name": "Cube.004"
    },
    {
      "mesh": 4,
      "name": "Cube.004_Chair_0"
    },
    {
      "children": [
        19
      ],
      "matrix": [
        -2.5987547740645497e-05,
        6.661338571267413e-15,
        60.00000381469164,
        -0.0,
        60.00000381469158,
        2.6226835705314062e-06,
        2.5987547743976166e-05,
        -0.0,
        2.0935904742808023e-07,
        -4.7895765304565385,
        9.146096804785457e-14,
        -0.0,
        300.0,
        121.7548599243164,
        2.384185791015625e-05,
        1.0
      ],
      "name": "Cube.005"
    },
    {
      "mesh": 5,
      "name": "Cube.005_Chair_0"
    },
    {
      "children": [
        21
      ],
      "matrix": [
        -60.00000381469408,
        -1.588186877076009e-21,
        1.955048514144209e-05,
        -0.0,
        1.955048514144183e-05,
        9.775241371680278e-06,
        60.00000381469327,
        -0.0,
        2.5426090613342896e-13,
        -4.789576530456479,
        7.803210612776511e-07,
        -0.0,
        -100.0,
        121.7548828125,
        200.0,
        1.0
      ],
      "name": "Cube.006"
    },
    {
      "mesh": 6,
      "name": "Cube.006_Chair_0"
    },
    {
      "children": [
        23
      ],
      "matrix": [
        100.0,
        0.0,
        0.0,
        0.0,
        0.0,
        1.7452383083348177,
        99.98476955640353,
        0.0,
        0.0,
        -99.98476955640353,
        1.7452383083348177,
        0.0,
        0.0,
        100.0,
        500.0,
        1.0
      ],
      "name": "Area"
    },
    {
      "children": [
        24
      ],
      "matrix": [
        1.0,
        0.0,
        0.0,
        0.0,
        0.0,
        2.220446049250313e-16,
        1.0,
        0.0,
        0.0,
        -1.0,
        2.220446049250313e-16,
        0.0,
        0.0,
        0.0,
        0.0,
        1.0
      ],
      "name": "Object_23"
    },
    {
      "name": "Object_24"
    },
    {
      "children": [
        26
      ],
      "matrix": [
        1.9470718859437852e-05,
        -1.6653345369377348e-14,
        99.9999999999981,
        0.0,
        -99.98476955640166,
        1.7452383083347955,
        1.9467753387125697e-05,
        0.0,
        -1.7452383083347622,
        -99.98476955640353,
        3.3981042424358066e-07,
        0.0,
        -500.0,
        100.0,
        0.0,
        1.0
      ],
      "name": "Area.001"
    },
    {
      "children": [
        27
      ],
      "matrix": [
        1.0,
        0.0,
        0.0,
        0.0,
        0.0,
        2.220446049250313e-16,
        1.0,
        0.0,
        0.0,
        -1.0,
        2.220446049250313e-16,
        0.0,
        0.0,
        0.0,
        0.0,
        1.0
      ],
      "name": "Object_26"
    },
    {
      "name": "Object_27"
    },
    {
      "children": [
        29
      ],
      "matrix": [
        62.969503963639916,
        -2.6161365185295438e-06,
        -77.68424274312731,
        0.0,
        77.67241116086076,
        1.7452350813500273,
        62.95991342885582,
        0.0,
        1.355771009916884,
        -99.9847696127306,
        1.0989679057418655,
        0.0,
        388.42120361328125,
        100.0,
        314.8475036621094,
        1.0
      ],
      "name": "Area.002"
    },
    {
      "children": [
        30
      ],
      "matrix": [
        1.0,
        0.0,
        0.0,
        0.0,
        0.0,
        2.220446049250313e-16,
        1.0,
        0.0,
        0.0,
        -1.0,
        2.220446049250313e-16,
        0.0,
        0.0,
        0.0,
        0.0,
        1.0
      ],
      "name": "Object_29"
    },
    {
      "name": "Object_30"
    },
    {
      "children": [
        32
      ],
      "matrix": [
        100.0,
        0.0,
        0.0,
        0.0,
        0.0,
        -99.98476942464143,
        1.7452458569748837,
        0.0,
        0.0,
        -1.7452458569748837,
        -99.98476942464143,
        0.0,
        0.0,
        -89.52684020996094,
        100.0,
        1.0
      ],
      "name": "Area.003"
    },
    {
      "children": [
        33
      ],
      "matrix": [
        1.0,
        0.0,
        0.0,
        0.0,
        0.0,
        2.220446049250313e-16,
        1.0,
        0.0,
        0.0,
        -1.0,
        2.220446049250313e-16,
        0.0,
        0.0,
        0.0,
        0.0,
        1.0
      ],
      "name": "Object_32"
    },
    {
      "name": "Object_33"
    }
  ],
  "scene": 0,
  "scenes": [
    {
      "name": "Sketchfab_Scene",
      "nodes": [
        0
      ]
    }
  ]
}
