{
  "accessors": [
    {
      "bufferView": 2,
      "componentType": 5126,
      "count": 8631,
      "max": [
        13.464409828186035,
        14.02914047241211,
        50.5873908996582
      ],
      "min": [
        -13.398520469665527,
        -11.55055046081543,
        -0.006499684881418943
      ],
      "type": "VEC3"
    },
    {
      "bufferView": 2,
      "byteOffset": 103572,
      "componentType": 5126,
      "count": 8631,
      "max": [
        0.9999632239341736,
        0.9999464154243469,
        0.9999825954437256
      ],
      "min": [
        -0.9999632239341736,
        -0.9999827146530151,
        -0.9998639225959778
      ],
      "type": "VEC3"
    },
    {
      "bufferView": 0,
      "componentType": 5125,
      "count": 48960,
      "type": "SCALAR"
    },
    {
      "bufferView": 2,
      "byteOffset": 207144,
      "componentType": 5126,
      "count": 94,
      "max": [
        10.562359809875488,
        12.434629440307617,
        18.2464599609375
      ],
      "min": [
        -10.5050687789917,
        -10.755270004272461,
        1.252271294593811
      ],
      "type": "VEC3"
    },
    {
      "bufferView": 2,
      "byteOffset": 208272,
      "componentType": 5126,
      "count": 94,
      "max": [
        0.9824876189231873,
        0.5597537755966187,
        0.9961885213851929
      ],
      "min": [
        -0.9850655794143677,
        -0.9872258901596069,
        -0.9053289294242859
      ],
      "type": "VEC3"
    },
    {
      "bufferView": 0,
      "byteOffset": 195840,
      "componentType": 5125,
      "count": 144,
      "type": "SCALAR"
    },
    {
      "bufferView": 2,
      "byteOffset": 209400,
      "componentType": 5126,
      "count": 16061,
      "max": [
        10.693049430847168,
        11.277898788452148,
        50.8886604309082
      ],
      "min": [
        -10.690796852111816,
        -11.1819429397583,
        15.648090362548828
      ],
      "type": "VEC3"
    },
    {
      "bufferView": 2,
      "byteOffset": 402132,
      "componentType": 5126,
      "count": 16061,
      "max": [
        0.9999998807907104,
        0.999980092048645,
        0.9999967217445374
      ],
      "min": [
        -0.9999998211860657,
        -0.9999939799308777,
        -0.999855637550354
      ],
      "type": "VEC3"
    },
    {
      "bufferView": 1,
      "componentType": 5126,
      "count": 16061,
      "max": [
        1.356868028640747,
        4.336483001708984
      ],
      "min": [
        -1.3656760454177856,
        -0.907345712184906
      ],
      "type": "VEC2"
    },
    {
      "bufferView": 0,
      "byteOffset": 196416,
      "componentType": 5125,
      "count": 18147,
      "type": "SCALAR"
    },
    {
      "bufferView": 2,
      "byteOffset": 594864,
      "componentType": 5126,
      "count": 212,
      "max": [
        0.5788998603820801,
        0.5758700370788574,
        14.393900871276855
      ],
      "min": [
        -0.5234599113464355,
        -0.5265002250671387,
        5.338779449462891
      ],
      "type": "VEC3"
    },
    {
      "bufferView": 2,
      "byteOffset": 597408,
      "componentType": 5126,
      "count": 212,
      "max": [
        0.9999814033508301,
        0.9999954104423523,
        0.9741564989089966
      ],
      "min": [
        -0.9999839067459106,
        -0.9999405741691589,
        -0.6302624940872192
      ],
      "type": "VEC3"
    },
    {
      "bufferView": 1,
      "byteOffset": 128488,
      "componentType": 5126,
      "count": 212,
      "max": [
        0.04362190142273903,
        1.1939079761505127
      ],
      "min": [
        -0.04824161157011986,
        -0.04387443885207176
      ],
      "type": "VEC2"
    },
    {
      "bufferView": 0,
      "byteOffset": 269004,
      "componentType": 5125,
      "count": 300,
      "type": "SCALAR"
    }
  ],
  "asset": {
    "extras": {
      "author": "ratnadewicandra (https://sketchfab.com/ratnadewicandra)",
      "license": "CC-BY-4.0 (http://creativecommons.org/licenses/by/4.0/)",
      "source": "https://sketchfab.com/3d-models/kursi-12bcc458b35d48cf8d6048053847685c",
      "title": "Kursi"
    },
    "generator": "Sketchfab-12.67.0",
    "version": "2.0"
  },
  "bufferViews": [
    {
      "buffer": 0,
      "byteLength": 270204,
      "name": "floatBufferViews",
      "target": 34963
    },
    {
      "buffer": 0,
      "byteLength": 130184,
      "byteOffset": 270204,
      "byteStride": 8,
      "name": "floatBufferViews",
      "target": 34962
    },
    {
      "buffer": 0,
      "byteLength": 599952,
      "byteOffset": 400388,
      "byteStride": 12,
      "name": "floatBufferViews",
      "target": 34962
    }
  ],
  "buffers": [
    {
      "byteLength": 1000340,
      "uri": "scene.bin"
    }
  ],
  "images": [
    {
      "uri": "textures/CUZ33_baseColor.jpeg"
    },
    {
      "uri": "textures/Metal_Silver_baseColor.jpeg"
    }
  ],
  "materials": [
    {
      "name": "Black",
      "pbrMetallicRoughness": {
        "baseColorFactor": [
          0.227451,
          0.227451,
          0.227451,
          1.0
        ],
        "metallicFactor": 0.0,
        "roughnessFactor": 0.6
      }
    },
    {
      "name": "material",
      "pbrMetallicRoughness": {
        "baseColorFactor": [
          0.882353,
          0.882353,
          0.784314,
          1.0
        ],
        "metallicFactor": 0.0,
        "roughnessFactor": 0.6
      }
    },
    {
      "name": "CUZ33",
      "pbrMetallicRoughness": {
        "baseColorTexture": {
          "index": 0
        },
        "metallicFactor": 0.0,
        "roughnessFactor": 0.6
      }
    },
    {
      "name": "Metal_Silver",
      "pbrMetallicRoughness": {
        "baseColorTexture": {
          "index": 1
        },
        "metallicFactor": 0.0,
        "roughnessFactor": 0.6
      }
    }
  ],
  "meshes": [
    {
      "name": "Material2",
      "primitives": [
        {
          "attributes": {
            "NORMAL": 1,
            "POSITION": 0
          },
          "indices": 2,
          "material": 0,
          "mode": 4
        }
      ]
    },
    {
      "name": "Material2",
      "primitives": [
        {
          "attributes": {
            "NORMAL": 4,
            "POSITION": 3
          },
          "indices": 5,
          "material": 1,
          "mode": 4
        }
      ]
    },
    {
      "name": "Material2",
      "primitives": [
        {
          "attributes": {
            "NORMAL": 7,
            "POSITION": 6,
            "TEXCOORD_0": 8
          },
          "indices": 9,
          "material": 2,
          "mode": 4
        }
      ]
    },
    {
      "name": "Material2",
      "primitives": [
        {
          "attributes": {
            "NORMAL": 11,
            "POSITION": 10,
            "TEXCOORD_0": 12
          },
          "indices": 13,
          "material": 3,
          "mode": 4
        }
      ]
    }
  ],
  "nodes": [
    {
      "children": [
        1
      ],
      "matrix": [
        1.0,
        0.0,
        0.0,
        0.0,
        0.0,
        2.220446049250313e-16,
        -1.0,
        0.0,
        0.0,
        1.0,
        2.220446049250313e-16,
        0.0,
        0.0,
        0.0,
        0.0,
        1.0
      ],
      "name": "Sketchfab_model"
    },
    {
      "children": [
        2,
        3,
        4,
        5,
        6
      ],
      "name": "Collada visual scene group"
    },
    {
      "mesh": 0,
      "name": "Material2"
    },
    {
      "mesh": 1,
      "name": "Material2"
    },
    {
      "mesh": 2,
      "name": "Material2"
    },
    {
      "mesh": 3,
      "name": "Material2"
    },
    {
      "children": [
        7
      ],
      "name": "SketchUp"
    },
    {
      "children": [
        8
      ],
      "matrix": [
        0.7071068,
        0.7071068,
        0.0,
        0.0,
        -0.2357023,
        0.2357023,
        0.942809,
        0.0,
        0.6666667,
        -0.6666667,
        0.3333333,
        0.0,
        79.45457,
        -81.01968,
        62.19307,
        1.0
      ],
      "name": "skp_camera_Last_Saved_SketchUp_View"
    },
    {
      "name": "ID1"
    }
  ],
  "samplers": [
    {
      "magFilter": 9729,
      "minFilter": 9987,
      "wrapS": 10497,
      "wrapT": 10497
    }
  ],
  "scene": 0,
  "scenes": [
    {
      "name": "Sketchfab_Scene",
      "nodes": [
        0
      ]
    }
  ],
  "textures": [
    {
      "sampler": 0,
      "source": 0
    },
    {
      "sampler": 0,
      "source": 1
    }
  ]
}
