{
  "accessors": [
    {
      "bufferView": 2,
      "componentType": 5126,
      "count": 203,
      "max": [
        1.7393499612808228,
        0.7232000231742859,
        5.04610013961792
      ],
      "min": [
        -1.7393499612808228,
        -0.8099899888038635,
        0.0
      ],
      "type": "VEC3"
    },
    {
      "bufferView": 2,
      "byteOffset": 2436,
      "componentType": 5126,
      "count": 203,
      "max": [
        1.0,
        1.0,
        1.0
      ],
      "min": [
        -1.0,
        -1.0,
        -1.0
      ],
      "type": "VEC3"
    },
    {
      "bufferView": 1,
      "componentType": 5126,
      "count": 203,
      "max": [
        1.0,
        1.0
      ],
      "min": [
        0.0,
        0.0
      ],
      "type": "VEC2"
    },
    {
      "bufferView": 0,
      "componentType": 5125,
      "count": 420,
      "type": "SCALAR"
    },
    {
      "bufferView": 2,
      "byteOffset": 4872,
      "componentType": 5126,
      "count": 172,
      "max": [
        0.8204500079154968,
        0.034960001707077026,
        2.2743799686431885
      ],
      "min": [
        -0.8204500079154968,
        -0.03254000097513199,
        -2.2743799686431885
      ],
      "type": "VEC3"
    },
    {
      "bufferView": 2,
      "byteOffset": 6936,
      "componentType": 5126,
      "count": 172,
      "max": [
        1.0,
        1.0,
        1.0
      ],
      "min": [
        -1.0,
        -1.0,
        -1.0
      ],
      "type": "VEC3"
    },
    {
      "bufferView": 1,
      "byteOffset": 1624,
      "componentType": 5126,
      "count": 172,
      "max": [
        1.0,
        1.0
      ],
      "min": [
        0.0,
        0.0
      ],
      "type": "VEC2"
    },
    {
      "bufferView": 0,
      "byteOffset": 1680,
      "componentType": 5125,
      "count": 342,
      "type": "SCALAR"
    },
    {
      "bufferView": 2,
      "byteOffset": 9000,
      "componentType": 5126,
      "count": 4,
      "max": [
        0.5070300102233887,
        -0.013059999793767929,
        2.0125200748443604
      ],
      "min": [
        -0.5070300102233887,
        -0.013059999793767929,
        0.028189999982714653
      ],
      "type": "VEC3"
    },
    {
      "bufferView": 2,
      "byteOffset": 9048,
      "componentType": 5126,
      "count": 4,
      "max": [
        0.0,
        -1.0,
        0.0
      ],
      "min": [
        0.0,
        -1.0,
        0.0
      ],
      "type": "VEC3"
    },
    {
      "bufferView": 1,
      "byteOffset": 3000,
      "componentType": 5126,
      "count": 4,
      "max": [
        0.5625,
        1.0
      ],
      "min": [
        0.0,
        0.0
      ],
      "type": "VEC2"
    },
    {
      "bufferView": 0,
      "byteOffset": 3048,
      "componentType": 5125,
      "count": 6,
      "type": "SCALAR"
    },
    {
      "bufferView": 2,
      "byteOffset": 9096,
      "componentType": 5126,
      "count": 92,
      "max": [
        0.8204500079154968,
        0.03254000097513199,
        2.2743799686431885
      ],
      "min": [
        -0.8204500079154968,
        -0.03254000097513199,
        -2.2743799686431885
      ],
      "type": "VEC3"
    },
    {
      "bufferView": 2,
      "byteOffset": 10200,
      "componentType": 5126,
      "count": 92,
      "max": [
        1.0,
        1.0,
        1.0
      ],
      "min": [
        -1.0,
        -1.0,
        -1.0
      ],
      "type": "VEC3"
    },
    {
      "bufferView": 1,
      "byteOffset": 3032,
      "componentType": 5126,
      "count": 92,
      "max": [
        0.9874500036239624,
        0.9756399989128113
      ],
      "min": [
        0.14906999468803406,
        0.03344999998807907
      ],
      "type": "VEC2"
    },
    {
      "bufferView": 0,
      "byteOffset": 3072,
      "componentType": 5125,
      "count": 192,
      "type": "SCALAR"
    },
    {
      "bufferView": 2,
      "byteOffset": 11304,
      "componentType": 5126,
      "count": 916,
      "max": [
        0.04196000099182129,
        0.03353999927639961,
        0.10871999710798264
      ],
      "min": [
        -0.04196000099182129,
        -0.052390001714229584,
        -0.34228000044822693
      ],
      "type": "VEC3"
    },
    {
      "bufferView": 2,
      "byteOffset": 22296,
      "componentType": 5126,
      "count": 916,
      "max": [
        1.0,
        1.0,
        1.0
      ],
      "min": [
        -1.0,
        -1.0,
        -1.0
      ],
      "type": "VEC3"
    },
    {
      "bufferView": 0,
      "byteOffset": 3840,
      "componentType": 5125,
      "count": 1968,
      "type": "SCALAR"
    },
    {
      "bufferView": 2,
      "byteOffset": 33288,
      "componentType": 5126,
      "count": 224,
      "max": [
        0.04196000099182129,
        -0.002730000065639615,
        0.03240000084042549
      ],
      "min": [
        -0.04196000099182129,
        -0.052390001714229584,
        -0.2659600079059601
      ],
      "type": "VEC3"
    },
    {
      "bufferView": 2,
      "byteOffset": 35976,
      "componentType": 5126,
      "count": 224,
      "max": [
        0.9740622043609619,
        1.0,
        -0.0
      ],
      "min": [
        -0.9740622043609619,
        -1.0,
        -0.0
      ],
      "type": "VEC3"
    },
    {
      "bufferView": 0,
      "byteOffset": 11712,
      "componentType": 5125,
      "count": 336,
      "type": "SCALAR"
    },
    {
      "bufferView": 2,
      "byteOffset": 38664,
      "componentType": 5126,
      "count": 916,
      "max": [
        0.04196000099182129,
        0.03353999927639961,
        0.10871999710798264
      ],
      "min": [
        -0.04196000099182129,
        -0.052390001714229584,
        -0.34228000044822693
      ],
      "type": "VEC3"
    },
    {
      "bufferView": 2,
      "byteOffset": 49656,
      "componentType": 5126,
      "count": 916,
      "max": [
        1.0,
        1.0,
        1.0
      ],
      "min": [
        -1.0,
        -1.0,
        -1.0
      ],
      "type": "VEC3"
    },
    {
      "bufferView": 0,
      "byteOffset": 13056,
      "componentType": 5125,
      "count": 1968,
      "type": "SCALAR"
    },
    {
      "bufferView": 2,
      "byteOffset": 60648,
      "componentType": 5126,
      "count": 224,
      "max": [
        0.04196000099182129,
        -0.002730000065639615,
        0.03240000084042549
      ],
      "min": [
        -0.04196000099182129,
        -0.052390001714229584,
        -0.2659600079059601
      ],
      "type": "VEC3"
    },
    {
      "bufferView": 2,
      "byteOffset": 63336,
      "componentType": 5126,
      "count": 224,
      "max": [
        0.9740622043609619,
        1.0,
        -0.0
      ],
      "min": [
        -0.9740622043609619,
        -1.0,
        -0.0
      ],
      "type": "VEC3"
    },
    {
      "bufferView": 0,
      "byteOffset": 20928,
      "componentType": 5125,
      "count": 336,
      "type": "SCALAR"
    },
    {
      "bufferView": 2,
      "byteOffset": 66024,
      "componentType": 5126,
      "count": 928,
      "max": [
        0.24122999608516693,
        0.054749999195337296,
        0.04083000123500824
      ],
      "min": [
        -0.23983000218868256,
        -0.03117999993264675,
        -0.03784999996423721
      ],
      "type": "VEC3"
    },
    {
      "bufferView": 2,
      "byteOffset": 77160,
      "componentType": 5126,
      "count": 928,
      "max": [
        1.0,
        1.0,
        1.0
      ],
      "min": [
        -1.0,
        -1.0,
        -1.0
      ],
      "type": "VEC3"
    },
    {
      "bufferView": 0,
      "byteOffset": 22272,
      "componentType": 5125,
      "count": 2004,
      "type": "SCALAR"
    },
    {
      "bufferView": 2,
      "byteOffset": 88296,
      "componentType": 5126,
      "count": 224,
      "max": [
        0.15982000529766083,
        0.018479999154806137,
        0.04083000123500824
      ],
      "min": [
        -0.15841999650001526,
        -0.03117999993264675,
        -0.03784999996423721
      ],
      "type": "VEC3"
    },
    {
      "bufferView": 2,
      "byteOffset": 90984,
      "componentType": 5126,
      "count": 224,
      "max": [
        -0.0,
        1.0,
        0.9770960807800293
      ],
      "min": [
        -0.0,
        -1.0,
        -0.9770960807800293
      ],
      "type": "VEC3"
    },
    {
      "bufferView": 0,
      "byteOffset": 30288,
      "componentType": 5125,
      "count": 336,
      "type": "SCALAR"
    },
    {
      "bufferView": 2,
      "byteOffset": 93672,
      "componentType": 5126,
      "count": 320,
      "max": [
        1.0,
        1.0,
        1.4223500490188599
      ],
      "min": [
        -1.0,
        -1.0,
        -1.0
      ],
      "type": "VEC3"
    },
    {
      "bufferView": 2,
      "byteOffset": 97512,
      "componentType": 5126,
      "count": 320,
      "max": [
        0.9951844215393066,
        0.9951844215393066,
        1.0
      ],
      "min": [
        -0.9951844215393066,
        -0.9951844215393066,
        -1.0
      ],
      "type": "VEC3"
    },
    {
      "bufferView": 1,
      "byteOffset": 3768,
      "componentType": 5126,
      "count": 320,
      "max": [
        1.0,
        1.0
      ],
      "min": [
        0.0,
        0.0
      ],
      "type": "VEC2"
    },
    {
      "bufferView": 0,
      "byteOffset": 31632,
      "componentType": 5125,
      "count": 564,
      "type": "SCALAR"
    },
    {
      "bufferView": 2,
      "byteOffset": 101352,
      "componentType": 5126,
      "count": 320,
      "max": [
        1.0,
        1.0,
        1.4223500490188599
      ],
      "min": [
        -1.0,
        -1.0,
        -1.0
      ],
      "type": "VEC3"
    },
    {
      "bufferView": 2,
      "byteOffset": 105192,
      "componentType": 5126,
      "count": 320,
      "max": [
        0.9951844215393066,
        0.9951844215393066,
        1.0
      ],
      "min": [
        -0.9951844215393066,
        -0.9951844215393066,
        -1.0
      ],
      "type": "VEC3"
    },
    {
      "bufferView": 1,
      "byteOffset": 6328,
      "componentType": 5126,
      "count": 320,
      "max": [
        1.0,
        1.0
      ],
      "min": [
        0.0,
        0.0
      ],
      "type": "VEC2"
    },
    {
      "bufferView": 0,
      "byteOffset": 33888,
      "componentType": 5125,
      "count": 564,
      "type": "SCALAR"
    }
  ],
  "asset": {
    "extras": {
      "author": "Gabriabel (https://sketchfab.com/Gabriabel)",
      "license": "CC-BY-4.0 (http://creativecommons.org/licenses/by/4.0/)",
      "source": "https://sketchfab.com/3d-models/lemari-baju-f1978fa3192d499db7233e900f43acdf",
      "title": "Lemari Baju"
    },
    "generator": "Sketchfab-12.64.0",
    "version": "2.0"
  },
  "bufferViews": [
    {
      "buffer": 0,
      "byteLength": 36144,
      "name": "floatBufferViews",
      "target": 34963
    },
    {
      "buffer": 0,
      "byteLength": 8888,
      "byteOffset": 36144,
      "byteStride": 8,
      "name": "floatBufferViews",
      "target": 34962
    },
    {
      "buffer": 0,
      "byteLength": 109032,
      "byteOffset": 45032,
      "byteStride": 12,
      "name": "floatBufferViews",
      "target": 34962
    }
  ],
  "buffers": [
    {
      "byteLength": 154064,
      "uri": "scene.bin"
    }
  ],
  "images": [
    {
      "uri": "textures/material_baseColor.png"
    },
    {
      "uri": "textures/wood_baseColor.png"
    },
    {
      "uri": "textures/mirror_baseColor.jpeg"
    }
  ],
  "materials": [
    {
      "doubleSided": true,
      "name": "material",
      "pbrMetallicRoughness": {
        "baseColorTexture": {
          "index": 0
        },
        "metallicFactor": 0.8005377606647771,
        "roughnessFactor": 0.0
      }
    },
    {
      "doubleSided": true,
      "name": "dove",
      "pbrMetallicRoughness": {
        "baseColorFactor": [
          0.6583749652,
          0.7529424429,
          0.838799119,
          1.0
        ],
        "metallicFactor": 0.7761475167623381,
        "roughnessFactor": 0.44336467835961324
      }
    },
    {
      "doubleSided": true,
      "name": "dove2",
      "pbrMetallicRoughness": {
        "baseColorFactor": [
          0.5592021942,
          0.6391361952,
          0.7116841078,
          1.0
        ],
        "metallicFactor": 0.0,
        "roughnessFactor": 0.6
      }
    },
    {
      "doubleSided": true,
      "name": "wood",
      "pbrMetallicRoughness": {
        "baseColorTexture": {
          "index": 1
        },
        "metallicFactor": 0.0,
        "roughnessFactor": 0.6
      }
    },
    {
      "doubleSided": true,
      "name": "mirror",
      "pbrMetallicRoughness": {
        "baseColorTexture": {
          "index": 2
        },
        "roughnessFactor": 0.0
      }
    }
  ],
  "meshes": [
    {
      "name": "Plane_0",
      "primitives": [
        {
          "attributes": {
            "NORMAL": 1,
            "POSITION": 0,
            "TEXCOORD_0": 2
          },
          "indices": 3,
          "material": 3,
          "mode": 4
        }
      ]
    },
    {
      "name": "DOOR1_0",
      "primitives": [
        {
          "attributes": {
            "NORMAL": 5,
            "POSITION": 4,
            "TEXCOORD_0": 6
          },
          "indices": 7,
          "material": 3,
          "mode": 4
        }
      ]
    },
    {
      "name": "DOOR1_1",
      "primitives": [
        {
          "attributes": {
            "NORMAL": 9,
            "POSITION": 8,
            "TEXCOORD_0": 10
          },
          "indices": 11,
          "material": 4,
          "mode": 4
        }
      ]
    },
    {
      "name": "DOOR1.001_0",
      "primitives": [
        {
          "attributes": {
            "NORMAL": 13,
            "POSITION": 12,
            "TEXCOORD_0": 14
          },
          "indices": 15,
          "material": 3,
          "mode": 4
        }
      ]
    },
    {
      "name": "hang_0",
      "primitives": [
        {
          "attributes": {
            "NORMAL": 17,
            "POSITION": 16
          },
          "indices": 18,
          "material": 1,
          "mode": 4
        }
      ]
    },
    {
      "name": "hang_1",
      "primitives": [
        {
          "attributes": {
            "NORMAL": 20,
            "POSITION": 19
          },
          "indices": 21,
          "material": 2,
          "mode": 4
        }
      ]
    },
    {
      "name": "hang.001_0",
      "primitives": [
        {
          "attributes": {
            "NORMAL": 23,
            "POSITION": 22
          },
          "indices": 24,
          "material": 1,
          "mode": 4
        }
      ]
    },
    {
      "name": "hang.001_1",
      "primitives": [
        {
          "attributes": {
            "NORMAL": 26,
            "POSITION": 25
          },
          "indices": 27,
          "material": 2,
          "mode": 4
        }
      ]
    },
    {
      "name": "hang.003_0",
      "primitives": [
        {
          "attributes": {
            "NORMAL": 29,
            "POSITION": 28
          },
          "indices": 30,
          "material": 1,
          "mode": 4
        }
      ]
    },
    {
      "name": "hang.003_1",
      "primitives": [
        {
          "attributes": {
            "NORMAL": 32,
            "POSITION": 31
          },
          "indices": 33,
          "material": 2,
          "mode": 4
        }
      ]
    },
    {
      "name": "Cylinder_0",
      "primitives": [
        {
          "attributes": {
            "NORMAL": 35,
            "POSITION": 34,
            "TEXCOORD_0": 36
          },
          "indices": 37,
          "material": 0,
          "mode": 4
        }
      ]
    },
    {
      "name": "Cylinder.001_0",
      "primitives": [
        {
          "attributes": {
            "NORMAL": 39,
            "POSITION": 38,
            "TEXCOORD_0": 40
          },
          "indices": 41,
          "material": 0,
          "mode": 4
        }
      ]
    }
  ],
  "nodes": [
    {
      "children": [
        1
      ],
      "matrix": [
        1.0,
        0.0,
        0.0,
        0.0,
        0.0,
        2.220446049250313e-16,
        -1.0,
        0.0,
        0.0,
        1.0,
        2.220446049250313e-16,
        0.0,
        0.0,
        0.0,
        0.0,
        1.0
      ],
      "name": "Sketchfab_model"
    },
    {
      "children": [
        2,
        4,
        6,
        9,
        11,
        13,
        16,
        19,
        22,
        24
      ],
      "name": "Root"
    },
    {
      "children": [
        3
      ],
      "matrix": [
        -0.29086000000000006,
        0.9551700000000001,
        -0.05519000000000001,
        0.0,
        -0.7711,
        -0.19988000000000003,
        0.6045200000000001,
        0.0,
        0.5663900000000001,
        0.21839000000000003,
        0.7946700000000001,
        0.0,
        2.14587,
        -10.48799,
        11.70676,
        1.0
      ],
      "name": "Lamp"
    },
    {
      "name": "Lamp"
    },
    {
      "children": [
        5
      ],
      "matrix": [
        1.0,
        0.0,
        0.0,
        0.0,
        0.0,
        1.0,
        0.0,
        0.0,
        0.0,
        0.0,
        1.0,
        0.0,
        -0.008430000000000002,
        -0.19284000000000004,
        0.033960000000000004,
        1.0
      ],
      "name": "Plane"
    },
    {
      "mesh": 0,
      "name": "Plane_0"
    },
    {
      "children": [
        7,
        8
      ],
      "matrix": [
        1.0,
        0.0,
        0.0,
        0.0,
        0.0,
        1.0,
        0.0,
        0.0,
        0.0,
        0.0,
        1.0,
        0.0,
        0.8190500000000001,
        -0.96545,
        2.58734,
        1.0
      ],
      "name": "DOOR1"
    },
    {
      "mesh": 1,
      "name": "DOOR1_0"
    },
    {
      "mesh": 2,
      "name": "DOOR1_1"
    },
    {
      "children": [
        10
      ],
      "matrix": [
        1.0,
        0.0,
        0.0,
        0.0,
        0.0,
        1.0,
        0.0,
        0.0,
        0.0,
        0.0,
        1.0,
        0.0,
        -0.83591,
        -0.96545,
        2.58734,
        1.0
      ],
      "name": "DOOR1.001"
    },
    {
      "mesh": 3,
      "name": "DOOR1.001_0"
    },
    {
      "children": [
        12
      ],
      "matrix": [
        -0.29086000000000006,
        0.9551700000000001,
        -0.05519000000000001,
        0.0,
        -0.7711,
        -0.19988000000000003,
        0.6045200000000001,
        0.0,
        0.5663900000000001,
        0.21839000000000003,
        0.7946700000000001,
        0.0,
        2.14587,
        9.99501,
        11.70676,
        1.0
      ],
      "name": "Lamp.001"
    },
    {
      "name": "Lamp.001"
    },
    {
      "children": [
        14,
        15
      ],
      "matrix": [
        1.0,
        0.0,
        0.0,
        0.0,
        0.0,
        1.0,
        0.0,
        0.0,
        0.0,
        0.0,
        1.0,
        0.0,
        -0.15364000000000003,
        -1.01634,
        3.3468599999999995,
        1.0
      ],
      "name": "hang"
    },
    {
      "mesh": 4,
      "name": "hang_0"
    },
    {
      "mesh": 5,
      "name": "hang_1"
    },
    {
      "children": [
        17,
        18
      ],
      "matrix": [
        1.0,
        0.0,
        0.0,
        0.0,
        0.0,
        1.0,
        0.0,
        0.0,
        0.0,
        0.0,
        1.0,
        0.0,
        0.15729000000000004,
        -1.01634,
        3.3468599999999995,
        1.0
      ],
      "name": "hang.001"
    },
    {
      "mesh": 6,
      "name": "hang.001_0"
    },
    {
      "mesh": 7,
      "name": "hang.001_1"
    },
    {
      "children": [
        20,
        21
      ],
      "matrix": [
        1.0,
        0.0,
        0.0,
        0.0,
        0.0,
        1.0,
        0.0,
        0.0,
        0.0,
        0.0,
        1.0,
        0.0,
        0.81198,
        -1.03754,
        2.18282,
        1.0
      ],
      "name": "hang.003"
    },
    {
      "mesh": 8,
      "name": "hang.003_0"
    },
    {
      "mesh": 9,
      "name": "hang.003_1"
    },
    {
      "children": [
        23
      ],
      "matrix": [
        0.04504000000000001,
        0.0,
        0.0,
        0.0,
        0.0,
        -0.0,
        0.04504000000000001,
        0.0,
        0.0,
        -0.04504000000000001,
        -0.0,
        0.0,
        0.15844000000000005,
        -0.95221,
        2.88436,
        1.0
      ],
      "name": "Cylinder"
    },
    {
      "mesh": 10,
      "name": "Cylinder_0"
    },
    {
      "children": [
        25
      ],
      "matrix": [
        0.04504000000000001,
        0.0,
        0.0,
        0.0,
        0.0,
        -0.0,
        0.04504000000000001,
        0.0,
        0.0,
        -0.04504000000000001,
        -0.0,
        0.0,
        -0.15173000000000003,
        -0.95221,
        2.88436,
        1.0
      ],
      "name": "Cylinder.001"
    },
    {
      "mesh": 11,
      "name": "Cylinder.001_0"
    }
  ],
  "samplers": [
    {
      "magFilter": 9729,
      "minFilter": 9987,
      "wrapS": 10497,
      "wrapT": 33648
    },
    {
      "magFilter": 9729,
      "minFilter": 9987,
      "wrapS": 10497,
      "wrapT": 10497
    },
    {
      "magFilter": 9729,
      "minFilter": 9987,
      "wrapS": 33648,
      "wrapT": 33648
    }
  ],
  "scene": 0,
  "scenes": [
    {
      "name": "Sketchfab_Scene",
      "nodes": [
        0
      ]
    }
  ],
  "textures": [
    {
      "sampler": 0,
      "source": 0
    },
    {
      "sampler": 1,
      "source": 1
    },
    {
      "sampler": 2,
      "source": 2
    }
  ]
}
