{
  "accessors": [
    {
      "bufferView": 2,
      "componentType": 5126,
      "count": 24,
      "max": [
        38.37224197387695,
        19.27487564086914,
        3.09771990776062
      ],
      "min": [
        -38.37224197387695,
        -19.27487564086914,
        1.6928253173828125
      ],
      "type": "VEC3"
    },
    {
      "bufferView": 2,
      "byteOffset": 288,
      "componentType": 5126,
      "count": 24,
      "max": [
        1.0,
        1.0,
        1.0
      ],
      "min": [
        -1.0,
        -1.0,
        -1.0
      ],
      "type": "VEC3"
    },
    {
      "bufferView": 1,
      "componentType": 5126,
      "count": 24,
      "max": [
        2.461369276046753,
        17.2705020904541
      ],
      "min": [
        -2.1913692951202393,
        -15.240503311157227
      ],
      "type": "VEC2"
    },
    {
      "bufferView": 0,
      "componentType": 5125,
      "count": 36,
      "type": "SCALAR"
    },
    {
      "bufferView": 2,
      "byteOffset": 576,
      "componentType": 5126,
      "count": 848,
      "max": [
        2.9079957008361816,
        2.3872251510620117,
        29.454689025878906
      ],
      "min": [
        -71.31851196289063,
        -33.686824798583984,
        -0.14873218536376953
      ],
      "type": "VEC3"
    },
    {
      "bufferView": 2,
      "byteOffset": 10752,
      "componentType": 5126,
      "count": 848,
      "max": [
        1.0,
        1.0,
        1.0
      ],
      "min": [
        -1.0,
        -1.0,
        -1.0
      ],
      "type": "VEC3"
    },
    {
      "bufferView": 1,
      "byteOffset": 192,
      "componentType": 5126,
      "count": 848,
      "max": [
        1.0,
        1.0
      ],
      "min": [
        0.0,
        0.0
      ],
      "type": "VEC2"
    },
    {
      "bufferView": 0,
      "byteOffset": 144,
      "componentType": 5125,
      "count": 1296,
      "type": "SCALAR"
    },
    {
      "bufferView": 2,
      "byteOffset": 20928,
      "componentType": 5126,
      "count": 212,
      "max": [
        0.701710045337677,
        1.6078250408172607,
        68.18975830078125
      ],
      "min": [
        -0.701710045337677,
        -1.6078250408172607,
        0.0
      ],
      "type": "VEC3"
    },
    {
      "bufferView": 2,
      "byteOffset": 23472,
      "componentType": 5126,
      "count": 212,
      "max": [
        1.0,
        1.0,
        1.0
      ],
      "min": [
        -1.0,
        -1.0,
        -1.0
      ],
      "type": "VEC3"
    },
    {
      "bufferView": 1,
      "byteOffset": 6976,
      "componentType": 5126,
      "count": 212,
      "max": [
        1.0,
        1.0
      ],
      "min": [
        0.0,
        0.0
      ],
      "type": "VEC2"
    },
    {
      "bufferView": 0,
      "byteOffset": 5328,
      "componentType": 5125,
      "count": 324,
      "type": "SCALAR"
    },
    {
      "bufferView": 2,
      "byteOffset": 26016,
      "componentType": 5126,
      "count": 212,
      "max": [
        0.701710045337677,
        1.6078250408172607,
        68.18975830078125
      ],
      "min": [
        -0.701710045337677,
        -1.6078250408172607,
        0.0
      ],
      "type": "VEC3"
    },
    {
      "bufferView": 2,
      "byteOffset": 28560,
      "componentType": 5126,
      "count": 212,
      "max": [
        1.0,
        1.0,
        1.0
      ],
      "min": [
        -1.0,
        -1.0,
        -1.0
      ],
      "type": "VEC3"
    },
    {
      "bufferView": 1,
      "byteOffset": 8672,
      "componentType": 5126,
      "count": 212,
      "max": [
        1.0,
        1.0
      ],
      "min": [
        0.0,
        0.0
      ],
      "type": "VEC2"
    },
    {
      "bufferView": 0,
      "byteOffset": 6624,
      "componentType": 5125,
      "count": 324,
      "type": "SCALAR"
    },
    {
      "bufferView": 2,
      "byteOffset": 31104,
      "componentType": 5126,
      "count": 212,
      "max": [
        1.1004880666732788,
        1.4534679651260376,
        30.20865249633789
      ],
      "min": [
        -1.1004880666732788,
        -1.4534679651260376,
        0.0
      ],
      "type": "VEC3"
    },
    {
      "bufferView": 2,
      "byteOffset": 33648,
      "componentType": 5126,
      "count": 212,
      "max": [
        1.0,
        1.0,
        1.0
      ],
      "min": [
        -1.0,
        -1.0,
        -1.0
      ],
      "type": "VEC3"
    },
    {
      "bufferView": 1,
      "byteOffset": 10368,
      "componentType": 5126,
      "count": 212,
      "max": [
        1.0,
        1.0
      ],
      "min": [
        0.0,
        0.0
      ],
      "type": "VEC2"
    },
    {
      "bufferView": 0,
      "byteOffset": 7920,
      "componentType": 5125,
      "count": 324,
      "type": "SCALAR"
    },
    {
      "bufferView": 2,
      "byteOffset": 36192,
      "componentType": 5126,
      "count": 212,
      "max": [
        1.1004880666732788,
        1.4534679651260376,
        30.20865249633789
      ],
      "min": [
        -1.1004880666732788,
        -1.4534679651260376,
        0.0
      ],
      "type": "VEC3"
    },
    {
      "bufferView": 2,
      "byteOffset": 38736,
      "componentType": 5126,
      "count": 212,
      "max": [
        1.0,
        1.0,
        1.0
      ],
      "min": [
        -1.0,
        -1.0,
        -1.0
      ],
      "type": "VEC3"
    },
    {
      "bufferView": 1,
      "byteOffset": 12064,
      "componentType": 5126,
      "count": 212,
      "max": [
        1.0,
        1.0
      ],
      "min": [
        0.0,
        0.0
      ],
      "type": "VEC2"
    },
    {
      "bufferView": 0,
      "byteOffset": 9216,
      "componentType": 5125,
      "count": 324,
      "type": "SCALAR"
    }
  ],
  "asset": {
    "extras": {
      "author": "nurkomala.12 (https://sketchfab.com/nurkomala.12)",
      "license": "CC-BY-4.0 (http://creativecommons.org/licenses/by/4.0/)",
      "source": "https://sketchfab.com/3d-models/meja-ac2d941e7d034695b6eaa3d7fec716d9",
      "title": "meja"
    },
    "generator": "Sketchfab-12.59.0",
    "version": "2.0"
  },
  "bufferViews": [
    {
      "buffer": 0,
      "byteLength": 10512,
      "name": "floatBufferViews",
      "target": 34963
    },
    {
      "buffer": 0,
      "byteLength": 13760,
      "byteOffset": 10512,
      "byteStride": 8,
      "name": "floatBufferViews",
      "target": 34962
    },
    {
      "buffer": 0,
      "byteLength": 41280,
      "byteOffset": 24272,
      "byteStride": 12,
      "name": "floatBufferViews",
      "target": 34962
    }
  ],
  "buffers": [
    {
      "byteLength": 65552,
      "uri": "scene.bin"
    }
  ],
  "materials": [
    {
      "doubleSided": true,
      "name": "03_-_Default",
      "pbrMetallicRoughness": {
        "baseColorFactor": [
          0.5,
          0.5,
          0.5,
          1.0
        ],
        "metallicFactor": 0.0,
        "roughnessFactor": 0.8612010517801294
      }
    },
    {
      "doubleSided": true,
      "name": "01_-_Default",
      "pbrMetallicRoughness": {
        "baseColorFactor": [
          0.588,
          0.588,
          0.588,
          1.0
        ],
        "metallicFactor": 0.0,
        "roughnessFactor": 0.8929713596497552
      }
    }
  ],
  "meshes": [
    {
      "name": "Box001_03 - Default_0",
      "primitives": [
        {
          "attributes": {
            "NORMAL": 1,
            "POSITION": 0,
            "TEXCOORD_0": 2
          },
          "indices": 3,
          "material": 0,
          "mode": 4
        }
      ]
    },
    {
      "name": "Box002_01 - Default_0",
      "primitives": [
        {
          "attributes": {
            "NORMAL": 5,
            "POSITION": 4,
            "TEXCOORD_0": 6
          },
          "indices": 7,
          "material": 1,
          "mode": 4
        }
      ]
    },
    {
      "name": "Box003_01 - Default_0",
      "primitives": [
        {
          "attributes": {
            "NORMAL": 9,
            "POSITION": 8,
            "TEXCOORD_0": 10
          },
          "indices": 11,
          "material": 1,
          "mode": 4
        }
      ]
    },
    {
      "name": "Box004_01 - Default_0",
      "primitives": [
        {
          "attributes": {
            "NORMAL": 13,
            "POSITION": 12,
            "TEXCOORD_0": 14
          },
          "indices": 15,
          "material": 1,
          "mode": 4
        }
      ]
    },
    {
      "name": "Box005_01 - Default_0",
      "primitives": [
        {
          "attributes": {
            "NORMAL": 17,
            "POSITION": 16,
            "TEXCOORD_0": 18
          },
          "indices": 19,
          "material": 1,
          "mode": 4
        }
      ]
    },
    {
      "name": "Box006_01 - Default_0",
      "primitives": [
        {
          "attributes": {
            "NORMAL": 21,
            "POSITION": 20,
            "TEXCOORD_0": 22
          },
          "indices": 23,
          "material": 1,
          "mode": 4
        }
      ]
    }
  ],
  "nodes": [
    {
      "children": [
        1
      ],
      "matrix": [
        1.0,
        0.0,
        0.0,
        0.0,
        0.0,
        2.220446049250313e-16,
        -1.0,
        0.0,
        0.0,
        1.0,
        2.220446049250313e-16,
        0.0,
        0.0,
        0.0,
        0.0,
        1.0
      ],
      "name": "Sketchfab_model"
    },
    {
      "children": [
        2
      ],
      "matrix": [
        1.0,
        0.0,
        0.0,
        0.0,
        0.0,
        0.0,
        1.0,
        0.0,
        0.0,
        -1.0,
        0.0,
        0.0,
        0.0,
        0.0,
        0.0,
        1.0
      ],
      "name": "table.FBX"
    },
    {
      "children": [
        3,
        5,
        7,
        9,
        12,
        14
      ],
      "name": "RootNode"
    },
    {
      "children": [
        4
      ],
      "matrix": [
        1.0,
        0.0,
        0.0,
        0.0,
        0.0,
        2.220446049250313e-16,
        -1.0,
        0.0,
        0.0,
        1.0,
        2.220446049250313e-16,
        0.0,
        -30.796924591064453,
        31.968536376953125,
        -18.306968688964844,
        1.0
      ],
      "name": "Box001"
    },
    {
      "mesh": 0,
      "name": "Box001_03 - Default_0"
    },
    {
      "children": [
        6
      ],
      "matrix": [
        -0.9999999999999885,
        1.2246469849340659e-16,
        -1.5099580265055075e-07,
        0.0,
        1.5099580265054902e-07,
        1.5099580286115355e-07,
        -0.9999999999999771,
        0.0,
        2.267726774562492e-14,
        -0.9999999999999885,
        -1.5099580275013125e-07,
        0.0,
        -65.13602447509766,
        33.69856262207031,
        -34.13530349731445,
        1.0
      ],
      "name": "Box002"
    },
    {
      "mesh": 1,
      "name": "Box002_01 - Default_0"
    },
    {
      "children": [
        8
      ],
      "matrix": [
        1.858406720733896e-07,
        3.308722450212111e-24,
        0.9999999999999827,
        0.0,
        -4.371138822550482e-08,
        0.999999999999999,
        8.123353758074671e-15,
        0.0,
        -0.9999999999999818,
        -4.371138822550557e-08,
        1.858406720733896e-07,
        0.0,
        3.2777938842773438,
        31.97796630859375,
        -35.21162414550781,
        1.0
      ],
      "name": "Box003"
    },
    {
      "mesh": 2,
      "name": "Box003_01 - Default_0"
    },
    {
      "children": [
        10
      ],
      "matrix": [
        1.858406720733896e-07,
        3.308722450212111e-24,
        0.9999999999999827,
        0.0,
        -4.371138822550482e-08,
        0.999999999999999,
        8.123353758074671e-15,
        0.0,
        -0.9999999999999818,
        -4.371138822550557e-08,
        1.858406720733896e-07,
        0.0,
        -30.81708526611328,
        32.000797271728516,
        -1.2666940689086914,
        1.0
      ],
      "name": "Box004"
    },
    {
      "children": [
        11
      ],
      "matrix": [
        1.0,
        0.0,
        -0.0,
        0.0,
        0.0,
        1.0,
        0.0,
        0.0,
        0.0,
        0.0,
        1.0,
        0.0,
        -7.113385436241515e-08,
        -1.5497207641601563e-06,
        -34.094879150390625,
        1.0
      ],
      "name": "Object_10"
    },
    {
      "mesh": 3,
      "name": "Box004_01 - Default_0"
    },
    {
      "children": [
        13
      ],
      "matrix": [
        1.0,
        -7.105427357601002e-15,
        -4.350820565274787e-31,
        0.0,
        7.105427357600907e-15,
        0.9999999999999867,
        1.6292068494294582e-07,
        0.0,
        -1.1576210914776188e-21,
        -1.6292068494294582e-07,
        0.9999999999999867,
        0.0,
        -66.745849609375,
        32.42243194580078,
        -33.572547912597656,
        1.0
      ],
      "name": "Box005"
    },
    {
      "mesh": 4,
      "name": "Box005_01 - Default_0"
    },
    {
      "children": [
        15
      ],
      "matrix": [
        1.0,
        -7.105427357601002e-15,
        -4.350820565274787e-31,
        0.0,
        7.105427357600907e-15,
        0.9999999999999867,
        1.6292068494294582e-07,
        0.0,
        -1.1576210914776188e-21,
        -1.6292068494294582e-07,
        0.9999999999999867,
        0.0,
        4.447164535522461,
        32.42243194580078,
        -33.572547912597656,
        1.0
      ],
      "name": "Box006"
    },
    {
      "mesh": 5,
      "name": "Box006_01 - Default_0"
    }
  ],
  "scene": 0,
  "scenes": [
    {
      "name": "Sketchfab_Scene",
      "nodes": [
        0
      ]
    }
  ]
}
